<svg xmlns="http://www.w3.org/2000/svg" viewBox="0 0 24 24" width="240" height="240">
  <defs>
    <linearGradient id="rainbow-gradient" x1="0%" y1="0%" x2="100%" y2="100%">
      <stop offset="0%" stop-color="#ff0000">
        <animate attributeName="stop-color" 
          values="#ff0000; #ff7f00; #ffff00; #00ff00; #0000ff; #4b0082; #8b00ff; #ff0000"
          dur="8s" repeatCount="indefinite" />
      </stop>
      <stop offset="25%" stop-color="#ff7f00">
        <animate attributeName="stop-color" 
          values="#ff7f00; #ffff00; #00ff00; #0000ff; #4b0082; #8b00ff; #ff0000; #ff7f00"
          dur="8s" repeatCount="indefinite" />
      </stop>
      <stop offset="50%" stop-color="#00ff00">
        <animate attributeName="stop-color" 
          values="#00ff00; #0000ff; #4b0082; #8b00ff; #ff0000; #ff7f00; #ffff00; #00ff00"
          dur="8s" repeatCount="indefinite" />
      </stop>
      <stop offset="75%" stop-color="#0000ff">
        <animate attributeName="stop-color" 
          values="#0000ff; #4b0082; #8b00ff; #ff0000; #ff7f00; #ffff00; #00ff00; #0000ff"
          dur="8s" repeatCount="indefinite" />
      </stop>
      <stop offset="100%" stop-color="#8b00ff">
        <animate attributeName="stop-color" 
          values="#8b00ff; #ff0000; #ff7f00; #ffff00; #00ff00; #0000ff; #4b0082; #8b00ff"
          dur="8s" repeatCount="indefinite" />
      </stop>
    </linearGradient>
  </defs>
  <path d="M20,19V7H4V19H20M20,3A2,2 0 0,1 22,5V19A2,2 0 0,1 20,21H4A2,2 0 0,1 2,19V5C2,3.89 2.9,3 4,3H20M13,17V15H18V17H13M9.58,13L5.57,9H8.4L11.7,12.3C12.09,12.69 12.09,13.33 11.7,13.72L8.42,17H5.59L9.58,13Z" fill="url(#rainbow-gradient)" />
</svg> 